<?xml version="1.0" encoding="UTF-8" standalone="no"?>
<!DOCTYPE svg PUBLIC "-//W3C//DTD SVG 1.1//EN"
 "http://www.w3.org/Graphics/SVG/1.1/DTD/svg11.dtd">
<!-- Generated by graphviz version 2.47.0 (20210316.0004)
 -->
<!-- Title: dependencies Pages: 1 -->
<svg width="504pt" height="284pt"
 viewBox="0.00 0.00 504.00 284.00" xmlns="http://www.w3.org/2000/svg" xmlns:xlink="http://www.w3.org/1999/xlink">
<g id="graph0" class="graph" transform="scale(1 1) rotate(0) translate(4 280)">
<title>dependencies</title>
<polygon fill="white" stroke="transparent" points="-4,4 -4,-280 500,-280 500,4 -4,4"/>
<text text-anchor="start" x="227.01" y="-42.4" font-family="Times-12" font-weight="bold" font-size="14.00">Legend</text>
<polygon fill="#ffffb3" stroke="transparent" points="14,-10 14,-30 34,-30 34,-10 14,-10"/>
<text text-anchor="start" x="37.63" y="-15.4" font-family="Times-12" font-size="14.00"> &#160;Declarations</text>
<polygon fill="#8dd3c7" stroke="transparent" points="127,-10 127,-30 147,-30 147,-10 127,-10"/>
<text text-anchor="start" x="150.73" y="-15.4" font-family="Times-12" font-size="14.00"> &#160;Module</text>
<polygon fill="#80b1d3" stroke="transparent" points="213,-10 213,-30 233,-30 233,-10 213,-10"/>
<text text-anchor="start" x="236.78" y="-15.4" font-family="Times-12" font-size="14.00"> &#160;Bootstrap</text>
<polygon fill="#fdb462" stroke="transparent" points="310,-10 310,-30 330,-30 330,-10 310,-10"/>
<text text-anchor="start" x="333.67" y="-15.4" font-family="Times-12" font-size="14.00"> &#160;Providers</text>
<polygon fill="#fb8072" stroke="transparent" points="406,-10 406,-30 426,-30 426,-10 406,-10"/>
<text text-anchor="start" x="429.73" y="-15.4" font-family="Times-12" font-size="14.00"> &#160;Exports</text>
<g id="clust1" class="cluster">
<title>cluster_DatabaseModule</title>
<polygon fill="none" stroke="black" stroke-dasharray="1,5" points="41,-70 41,-268 455,-268 455,-70 41,-70"/>
</g>
<g id="clust6" class="cluster">
<title>cluster_DatabaseModule_providers</title>
<polygon fill="none" stroke="black" points="49,-78 49,-130 447,-130 447,-78 49,-78"/>
</g>
<g id="clust4" class="cluster">
<title>cluster_DatabaseModule_exports</title>
<polygon fill="none" stroke="black" points="77,-208 77,-260 382,-260 382,-208 77,-208"/>
</g>
<!-- DatabaseHealthIndicator  -->
<g id="node1" class="node">
<title>DatabaseHealthIndicator </title>
<polygon fill="#fb8072" stroke="black" points="374.15,-252 215.85,-252 215.85,-216 374.15,-216 374.15,-252"/>
<text text-anchor="middle" x="295" y="-229.8" font-family="Times,serif" font-size="14.00">DatabaseHealthIndicator </text>
</g>
<!-- DatabaseService  -->
<g id="node2" class="node">
<title>DatabaseService </title>
<polygon fill="#fb8072" stroke="black" points="197.28,-252 84.72,-252 84.72,-216 197.28,-216 197.28,-252"/>
<text text-anchor="middle" x="141" y="-229.8" font-family="Times,serif" font-size="14.00">DatabaseService </text>
</g>
<!-- DatabaseModule -->
<g id="node3" class="node">
<title>DatabaseModule</title>
<polygon fill="#8dd3c7" stroke="black" points="224.35,-187 221.35,-191 200.35,-191 197.35,-187 113.65,-187 113.65,-151 224.35,-151 224.35,-187"/>
<text text-anchor="middle" x="169" y="-164.8" font-family="Times,serif" font-size="14.00">DatabaseModule</text>
</g>
<!-- DatabaseModule&#45;&gt;DatabaseHealthIndicator  -->
<g id="edge1" class="edge">
<title>DatabaseModule&#45;&gt;DatabaseHealthIndicator </title>
<path fill="none" stroke="black" stroke-dasharray="5,2" d="M220.05,-187.11C220.05,-187.11 220.05,-205.99 220.05,-205.99"/>
<polygon fill="black" stroke="black" points="216.55,-205.99 220.05,-215.99 223.55,-205.99 216.55,-205.99"/>
</g>
<!-- DatabaseModule&#45;&gt;DatabaseService  -->
<g id="edge2" class="edge">
<title>DatabaseModule&#45;&gt;DatabaseService </title>
<path fill="none" stroke="black" stroke-dasharray="5,2" d="M155.48,-187.11C155.48,-187.11 155.48,-205.99 155.48,-205.99"/>
<polygon fill="black" stroke="black" points="151.98,-205.99 155.48,-215.99 158.98,-205.99 151.98,-205.99"/>
</g>
<!-- DatabaseHealthIndicator -->
<g id="node4" class="node">
<title>DatabaseHealthIndicator</title>
<ellipse fill="#fdb462" stroke="black" cx="332" cy="-104" rx="107.04" ry="18"/>
<text text-anchor="middle" x="332" y="-99.8" font-family="Times,serif" font-size="14.00">DatabaseHealthIndicator</text>
</g>
<!-- DatabaseHealthIndicator&#45;&gt;DatabaseModule -->
<g id="edge3" class="edge">
<title>DatabaseHealthIndicator&#45;&gt;DatabaseModule</title>
<path fill="none" stroke="black" d="M224.63,-104C219.18,-104 215.9,-104 215.9,-104 215.9,-104 215.9,-140.89 215.9,-140.89"/>
<polygon fill="black" stroke="black" points="212.4,-140.89 215.9,-150.89 219.4,-140.89 212.4,-140.89"/>
</g>
<!-- DatabaseService -->
<g id="node5" class="node">
<title>DatabaseService</title>
<ellipse fill="#fdb462" stroke="black" cx="132" cy="-104" rx="75.26" ry="18"/>
<text text-anchor="middle" x="132" y="-99.8" font-family="Times,serif" font-size="14.00">DatabaseService</text>
</g>
<!-- DatabaseService&#45;&gt;DatabaseModule -->
<g id="edge4" class="edge">
<title>DatabaseService&#45;&gt;DatabaseModule</title>
<path fill="none" stroke="black" d="M160.48,-120.74C160.48,-120.74 160.48,-140.72 160.48,-140.72"/>
<polygon fill="black" stroke="black" points="156.98,-140.72 160.48,-150.72 163.98,-140.72 156.98,-140.72"/>
</g>
</g>
</svg>
